<svg width="71" height="37" viewBox="0 0 71 37" fill="none" xmlns="http://www.w3.org/2000/svg">
    <path fill-rule="evenodd" clip-rule="evenodd"
        d="M43.0706 3.55351C41.11 2.48676 38.822 2 36.2849 2L23.9286 2C22.8635 2 22 2.86909 22 3.94118V9.22118C22 10.2933 22.8635 11.1624 23.9286 11.1624H23.9903C25.8223 11.1624 27.3074 12.6572 27.3074 14.5012C27.3074 16.3452 25.8223 17.84 23.9903 17.84H23.9286C22.8635 17.84 22 18.7091 22 19.7812V25.1272V26.7908V27.0684V29.6869C22 32.6212 24.3788 35 27.3131 35V35H31.6619C32.1945 35 32.6262 34.5655 32.6262 34.0294V28.5057C32.6262 27.7119 33.2655 27.0684 34.0542 27.0684C34.6412 27.0684 35.1685 27.43 35.3832 27.98L37.6431 33.7688C37.933 34.5115 38.6451 35 39.438 35H45.1427C46.5305 35 47.464 33.5691 46.9125 32.2873L43.956 25.4163C43.8719 25.2209 43.9417 24.9937 44.1163 24.8734C45.559 23.8788 46.7065 22.59 47.5312 21.0172C48.5338 19.1052 49 16.9237 49 14.5342C49 12.1446 48.5338 9.96318 47.5312 8.05112C46.5162 6.11546 45.0121 4.60982 43.0706 3.55351ZM37.661 27.0182C37.3831 27.039 37.199 27.3235 37.301 27.5846L38.1203 29.6835C38.9153 31.7198 40.8674 33.0588 43.0411 33.0588C44.0341 33.0588 44.7021 32.0349 44.3075 31.1176L42.2991 26.4501C42.1884 26.1928 41.8925 26.0746 41.6317 26.1733C40.4071 26.6368 39.0784 26.9123 37.661 27.0182ZM30.6976 30.0636C30.6976 28.4094 29.3653 27.0684 27.7218 27.0684H26.9044C25.2609 27.0684 23.9286 28.4094 23.9286 30.0636C23.9286 31.7178 25.2609 33.0588 26.9044 33.0588H27.7218C29.3653 33.0588 30.6976 31.7178 30.6976 30.0636ZM38.1409 25.0228C37.6296 25.0829 37.0983 25.1171 36.547 25.1252C36.4601 25.1265 36.3728 25.1272 36.2849 25.1272H31.6619H29.2358H25.8571C24.792 25.1272 23.9286 24.2581 23.9286 23.186V21.7224C23.9286 20.6503 24.792 19.7812 25.8571 19.7812H27.3074C28.3725 19.7812 29.236 18.9121 29.236 17.84V11.1624C29.236 10.0903 28.3725 9.22118 27.3074 9.22118L25.8571 9.22118C24.792 9.22118 23.9286 8.35208 23.9286 7.28V5.88235C23.9286 4.81027 24.792 3.94118 25.8571 3.94118L36.2849 3.94118C36.4284 3.94118 36.5705 3.9429 36.7113 3.94633C38.8231 3.9979 40.6372 4.43618 42.1536 5.26118C43.771 6.14118 44.995 7.37318 45.8256 8.95718C46.6561 10.5412 47.0714 12.4002 47.0714 14.5342C47.0714 16.6682 46.6561 18.5272 45.8256 20.1112C45.1526 21.3947 44.2213 22.447 43.0317 23.2683C43.0284 23.2706 43.0252 23.2728 43.0219 23.2751C42.7463 23.4648 42.4568 23.6422 42.1536 23.8072C41.8765 23.9579 41.5895 24.0958 41.2926 24.2207C41.2645 24.2325 41.2363 24.2442 41.208 24.2558C40.3428 24.6104 39.3941 24.8568 38.3621 24.995C38.3294 24.9993 38.2967 25.0036 38.2638 25.0078C38.223 25.0129 38.182 25.0179 38.1409 25.0228ZM42.547 14.5012C42.547 16.1292 42.0552 17.4162 41.0716 18.3622C40.1099 19.3082 38.6783 19.7812 36.7767 19.7812H35.4267C34.3616 19.7812 33.4981 18.9121 33.4981 17.84V11.1624C33.4981 10.0903 34.3616 9.22118 35.4267 9.22118H36.7767C38.6783 9.22118 40.1099 9.68318 41.0716 10.6072C42.0552 11.5532 42.547 12.8512 42.547 14.5012ZM39.2891 17.3062C38.7703 17.6155 37.9827 17.84 36.7767 17.84C36.0311 17.84 35.4267 17.2316 35.4267 16.4812V12.5212C35.4267 11.7707 36.0311 11.1624 36.7767 11.1624C38.3957 11.1624 39.2663 11.5562 39.74 12.0113C40.2658 12.5174 40.6184 13.2649 40.6184 14.5012C40.6184 15.7073 40.2706 16.4476 39.7392 16.9587L39.7237 16.9739C39.605 17.0906 39.462 17.2031 39.2891 17.3062Z"
        fill="#181B2E" />
</svg>