<svg width="28" height="34" viewBox="0 0 28 34" fill="none" xmlns="http://www.w3.org/2000/svg">
    <path fill-rule="evenodd" clip-rule="evenodd"
        d="M22.24 23C23.68 22.01 24.83 20.72 25.65 19.14C26.65 17.23 27.12 15.05 27.12 12.66C27.12 10.27 26.65 8.09003 25.65 6.18003C24.63 4.24003 23.13 2.74003 21.19 1.68003C19.23 0.610029 16.94 0.130029 14.4 0.130029H2.05C0.989995 0.120029 0.119995 0.990029 0.119995 2.07003V7.35003C0.119995 8.42003 0.979995 9.29003 2.05 9.29003H2.11C3.94 9.29003 5.43 10.78 5.43 12.63C5.43 14.48 3.94 15.97 2.11 15.97H2.05C0.979995 15.97 0.119995 16.84 0.119995 17.91V27.82C0.119995 30.75 2.49999 33.13 5.43 33.13H9.77999C10.31 33.13 10.74 32.7 10.74 32.16V26.64C10.74 25.85 11.38 25.2 12.17 25.2C12.76 25.2 13.28 25.56 13.5 26.11L15.76 31.9C16.05 32.64 16.76 33.13 17.55 33.13H23.25C24.64 33.13 25.57 31.7 25.02 30.42L22.06 23.55C21.98 23.35 22.05 23.13 22.22 23.01L22.24 23ZM17.86 15.09L17.84 15.11C17.72 15.23 17.58 15.34 17.41 15.44C16.89 15.75 16.1 15.97 14.9 15.97C14.15 15.97 13.55 15.36 13.55 14.61V10.65C13.55 9.90003 14.15 9.29003 14.9 9.29003C16.52 9.29003 17.39 9.68003 17.86 10.14C18.39 10.65 18.74 11.39 18.74 12.63C18.74 13.87 18.39 14.58 17.86 15.09ZM20.8798 24.3835C20.6603 23.8673 20.0725 23.6403 19.5705 23.8333C19.4044 23.8972 19.2585 23.9543 19.1275 24.0055C18.639 24.1965 18.3567 24.3069 17.9987 24.3917C17.5467 24.4988 16.9722 24.5636 15.7444 24.6513C15.1352 24.6948 14.7307 25.3106 14.9533 25.8895L14.9531 25.8896L14.9585 25.9024L16.5371 29.6891C16.798 30.3405 17.0765 30.8253 17.4078 31.1669C17.7537 31.5235 18.1373 31.7037 18.557 31.7754C18.9517 31.8428 19.372 31.8119 19.7795 31.7755C19.8356 31.7705 19.8919 31.7654 19.9487 31.7602C20.3214 31.726 20.7133 31.69 21.16 31.69C22.5142 31.69 23.4189 30.2882 22.8896 29.053L22.8893 29.0523L20.8798 24.3835ZM19.9506 24.7672C19.9431 24.7641 19.9355 24.7643 19.9295 24.7667C19.7835 24.8228 19.6496 24.8753 19.5244 24.9243C19.0225 25.1209 18.6614 25.2624 18.2292 25.3648C17.7049 25.489 17.0775 25.5571 15.9326 25.6403L17.4615 29.3076L17.4643 29.3143L17.4642 29.3143C17.703 29.9112 17.9228 30.2616 18.1256 30.4706C18.3144 30.6653 18.5014 30.7514 18.7255 30.7897C18.9745 30.8322 19.2711 30.8169 19.6907 30.7795C19.7433 30.7748 19.7975 30.7698 19.8532 30.7647C20.2247 30.7305 20.6641 30.69 21.16 30.69C21.7857 30.69 22.2209 30.0321 21.9706 29.4473C21.9705 29.4472 21.9705 29.4471 21.9704 29.447L19.9607 24.7777L19.9595 24.7748L19.9595 24.7748C19.9587 24.7728 19.958 24.772 19.9572 24.7713C19.9562 24.7703 19.9541 24.7687 19.9506 24.7672ZM1.54999 28.18C1.54999 26.2571 3.10057 24.69 5.01999 24.69H5.83999C7.76831 24.69 9.31999 26.2561 9.31999 28.18C9.31999 30.1129 7.76939 31.68 5.83999 31.68H5.01999C3.09841 31.68 1.54999 30.1007 1.54999 28.18ZM5.01999 25.69C3.6594 25.69 2.54999 26.8029 2.54999 28.18C2.54999 29.5593 3.66156 30.68 5.01999 30.68H5.83999C7.21058 30.68 8.31999 29.5671 8.31999 28.18C8.31999 26.804 7.21167 25.69 5.83999 25.69H5.01999ZM3.98999 2.57001C3.19949 2.57001 2.55999 3.21278 2.55999 4.01001V5.41001C2.55999 6.20724 3.19949 6.85001 3.98999 6.85001H5.43999C6.77781 6.85001 7.86999 7.94555 7.86999 9.29001V15.97C7.86999 17.3145 6.77781 18.41 5.43999 18.41H3.98999C3.19949 18.41 2.55999 19.0528 2.55999 19.85V21.32C2.55999 22.1172 3.19949 22.76 3.98999 22.76H14.6654C15.1343 22.7513 15.5892 22.7201 16.0302 22.6727L16.0629 22.64H16.2587L16.268 22.6389L16.2696 22.6387C16.2788 22.6375 16.2955 22.6354 16.3133 22.6338C16.3177 22.6333 16.3223 22.6329 16.3273 22.6325C16.3788 22.6236 16.4224 22.621 16.4538 22.6203C17.4179 22.4869 18.3042 22.2538 19.1142 21.9318C19.1545 21.9084 19.1963 21.8888 19.245 21.8715C19.5202 21.7608 19.7875 21.6316 20.0372 21.4929L20.0396 21.4916C20.3344 21.3299 20.6085 21.1597 20.8622 20.9811L20.9917 20.89H21.002C22.0632 20.1302 22.8983 19.1622 23.5177 17.9968C24.3025 16.5025 24.7 14.7159 24.7 12.65C24.7 10.5844 24.3026 8.8075 23.5175 7.31277C22.7244 5.81199 21.5761 4.65309 20.0413 3.81937C18.6162 3.04547 16.8794 2.61921 14.834 2.57001H14.8334H14.8326H14.8318H14.831H14.8301H14.8293H14.8285H14.8277H14.8269H14.826H14.8252H14.8244H14.8236H14.8228H14.8219H14.8211H14.8203H14.8195H14.8187H14.8178H14.817H14.8162H14.8154H14.8146H14.8137H14.8129H14.8121H14.8113H14.8105H14.8096H14.8088H14.808H14.8072H14.8064H14.8055H14.8047H14.8039H14.8031H14.8022H14.8014H14.8006H14.7998H14.799H14.7981H14.7973H14.7965H14.7957H14.7949H14.794H14.7932H14.7924H14.7916H14.7908H14.7899H14.7891H14.7883H14.7875H14.7866H14.7858H14.785H14.7842H14.7834H14.7825H14.7817H14.7809H14.7801H14.7793H14.7784H14.7776H14.7768H14.776H14.7751H14.7743H14.7735H14.7727H14.7719H14.771H14.7702H14.7694H14.7686H14.7678H14.7669H14.7661H14.7653H14.7645H14.7636H14.7628H14.762H14.7612H14.7603H14.7595H14.7587H14.7579H14.7571H14.7562H14.7554H14.7546H14.7538H14.7529H14.7521H14.7513H14.7505H14.7497H14.7488H14.748H14.7472H14.7464H14.7455H14.7447H14.7439H14.7431H14.7422H14.7414H14.7406H14.7398H14.739H14.7381H14.7373H14.7365H14.7357H14.7348H14.734H14.7332H14.7324H14.7315H14.7307H14.7299H14.7291H14.7282H14.7274H14.7266H14.7258H14.7249H14.7241H14.7233H14.7225H14.7216H14.7208H14.72H14.7192H14.7183H14.7175H14.7167H14.7159H14.715H14.7142H14.7134H14.7126H14.7117H14.7109H14.7101H14.7093H14.7084H14.7076H14.7068H14.706H14.7051H14.7043H14.7035H14.7026H14.7018H14.701H14.7002H14.6993H14.6985H14.6977H14.6969H14.696H14.6952H14.6944H14.6936H14.6927H14.6919H14.6911H14.6902H14.6894H14.6886H14.6878H14.6869H14.6861H14.6853H14.6844H14.6836H14.6828H14.682H14.6811H14.6803H14.6795H14.6786H14.6778H14.677H14.6762H14.6753H14.6745H14.6737H14.6728H14.672H14.6712H14.6704H14.6695H14.6687H14.6679H14.667H14.6662H14.6654H14.6645H14.6637H14.6629H14.6621H14.6612H14.6604H14.6596H14.6587H14.6579H14.6571H14.6562H14.6554H14.6546H14.6537H14.6529H14.6521H14.6512H14.6504H14.6496H14.6487H14.6479H14.6471H14.6462H14.6454H14.6446H14.6437H14.6429H14.6421H14.6413H14.6404H14.6396H14.6387H14.6379H14.6371H14.6362H14.6354H14.6346H14.6337H14.6329H14.6321H14.6312H14.6304H14.6296H14.6287H14.6279H14.6271H14.6262H14.6254H14.6246H14.6237H14.6229H14.6221H14.6212H14.6204H14.6195H14.6187H14.6179H14.617H14.6162H14.6154H14.6145H14.6137H14.6129H14.612H14.6112H14.6103H14.6095H14.6087H14.6078H14.607H14.6062H14.6053H14.6045H14.6036H14.6028H14.602H14.6011H14.6003H14.5994H14.5986H14.5978H14.5969H14.5961H14.5952H14.5944H14.5936H14.5927H14.5919H14.591H14.5902H14.5894H14.5885H14.5877H14.5868H14.586H14.5852H14.5843H14.5835H14.5826H14.5818H14.5809H14.5801H14.5793H14.5784H14.5776H14.5767H14.5759H14.575H14.5742H14.5734H14.5725H14.5717H14.5708H14.57H14.5691H14.5683H14.5675H14.5666H14.5658H14.5649H14.5641H14.5632H14.5624H14.5615H14.5607H14.5598H14.559H14.5582H14.5573H14.5565H14.5556H14.5548H14.5539H14.5531H14.5522H14.5514H14.5505H14.5497H14.5488H14.548H14.5471H14.5463H14.5454H14.5446H14.5437H14.5429H14.542H14.5412H14.5404H14.5395H14.5387H14.5378H14.537H14.5361H14.5353H14.5344H14.5335H14.5327H14.5318H14.531H14.5301H14.5293H14.5284H14.5276H14.5267H14.5259H14.525H14.5242H14.5233H14.5225H14.5216H14.5208H14.5199H14.5191H14.5182H14.5174H14.5165H14.5156H14.5148H14.5139H14.5131H14.5122H14.5114H14.5105H14.5097H14.5088H14.508H14.5071H14.5062H14.5054H14.5045H14.5037H14.5028H14.502H14.5011H14.5002H14.4994H14.4985H14.4977H14.4968H14.496H14.4951H14.4942H14.4934H14.4925H14.4917H14.4908H14.4899H14.4891H14.4882H14.4874H14.4865H14.4856H14.4848H14.4839H14.4831H14.4822H14.4813H14.4805H14.4796H14.4787H14.4779H14.477H14.4762H14.4753H14.4744H14.4736H14.4727H14.4718H14.471H14.4701H14.4692H14.4684H14.4675H14.4667H14.4658H14.4649H14.4641H14.4632H14.4623H14.4615H14.4606H14.4597H14.4589H14.458H14.4571H14.4563H14.4554H14.4545H14.4537H14.4528H14.4519H14.4511H14.4502H14.4493H14.4484H14.4476H14.4467H14.4458H14.445H14.4441H14.4432H14.4424H14.4415H14.4406H14.4397H14.4389H14.438H14.4371H14.4363H14.4354H14.4345H14.4336H14.4328H14.4319H14.431H14.4301H14.4293H14.4284H14.4275H14.4266H14.4258H14.4249H14.424H14.4231H14.4223H14.4214H14.4205H14.4196H14.4188H14.4179H14.417H14.4161H14.4153H14.4144H14.4135H14.4126H14.4117H14.4109H14.41H3.98999ZM1.55999 4.01001C1.55999 2.66724 2.64048 1.57001 3.98999 1.57001H14.41H14.4109H14.4117H14.4126H14.4135H14.4144H14.4153H14.4161H14.417H14.4179H14.4188H14.4196H14.4205H14.4214H14.4223H14.4231H14.424H14.4249H14.4258H14.4266H14.4275H14.4284H14.4293H14.4301H14.431H14.4319H14.4328H14.4336H14.4345H14.4354H14.4363H14.4371H14.438H14.4389H14.4397H14.4406H14.4415H14.4424H14.4432H14.4441H14.445H14.4458H14.4467H14.4476H14.4484H14.4493H14.4502H14.4511H14.4519H14.4528H14.4537H14.4545H14.4554H14.4563H14.4571H14.458H14.4589H14.4597H14.4606H14.4615H14.4623H14.4632H14.4641H14.4649H14.4658H14.4667H14.4675H14.4684H14.4692H14.4701H14.471H14.4718H14.4727H14.4736H14.4744H14.4753H14.4762H14.477H14.4779H14.4787H14.4796H14.4805H14.4813H14.4822H14.4831H14.4839H14.4848H14.4856H14.4865H14.4874H14.4882H14.4891H14.4899H14.4908H14.4917H14.4925H14.4934H14.4942H14.4951H14.496H14.4968H14.4977H14.4985H14.4994H14.5002H14.5011H14.502H14.5028H14.5037H14.5045H14.5054H14.5062H14.5071H14.508H14.5088H14.5097H14.5105H14.5114H14.5122H14.5131H14.5139H14.5148H14.5156H14.5165H14.5174H14.5182H14.5191H14.5199H14.5208H14.5216H14.5225H14.5233H14.5242H14.525H14.5259H14.5267H14.5276H14.5284H14.5293H14.5301H14.531H14.5318H14.5327H14.5335H14.5344H14.5353H14.5361H14.537H14.5378H14.5387H14.5395H14.5404H14.5412H14.542H14.5429H14.5437H14.5446H14.5454H14.5463H14.5471H14.548H14.5488H14.5497H14.5505H14.5514H14.5522H14.5531H14.5539H14.5548H14.5556H14.5565H14.5573H14.5582H14.559H14.5598H14.5607H14.5615H14.5624H14.5632H14.5641H14.5649H14.5658H14.5666H14.5675H14.5683H14.5691H14.57H14.5708H14.5717H14.5725H14.5734H14.5742H14.575H14.5759H14.5767H14.5776H14.5784H14.5793H14.5801H14.5809H14.5818H14.5826H14.5835H14.5843H14.5852H14.586H14.5868H14.5877H14.5885H14.5894H14.5902H14.591H14.5919H14.5927H14.5936H14.5944H14.5952H14.5961H14.5969H14.5978H14.5986H14.5994H14.6003H14.6011H14.602H14.6028H14.6036H14.6045H14.6053H14.6062H14.607H14.6078H14.6087H14.6095H14.6103H14.6112H14.612H14.6129H14.6137H14.6145H14.6154H14.6162H14.617H14.6179H14.6187H14.6195H14.6204H14.6212H14.6221H14.6229H14.6237H14.6246H14.6254H14.6262H14.6271H14.6279H14.6287H14.6296H14.6304H14.6312H14.6321H14.6329H14.6337H14.6346H14.6354H14.6362H14.6371H14.6379H14.6387H14.6396H14.6404H14.6413H14.6421H14.6429H14.6437H14.6446H14.6454H14.6462H14.6471H14.6479H14.6487H14.6496H14.6504H14.6512H14.6521H14.6529H14.6537H14.6546H14.6554H14.6562H14.6571H14.6579H14.6587H14.6596H14.6604H14.6612H14.6621H14.6629H14.6637H14.6645H14.6654H14.6662H14.667H14.6679H14.6687H14.6695H14.6704H14.6712H14.672H14.6728H14.6737H14.6745H14.6753H14.6762H14.677H14.6778H14.6786H14.6795H14.6803H14.6811H14.682H14.6828H14.6836H14.6844H14.6853H14.6861H14.6869H14.6878H14.6886H14.6894H14.6902H14.6911H14.6919H14.6927H14.6936H14.6944H14.6952H14.696H14.6969H14.6977H14.6985H14.6993H14.7002H14.701H14.7018H14.7026H14.7035H14.7043H14.7051H14.706H14.7068H14.7076H14.7084H14.7093H14.7101H14.7109H14.7117H14.7126H14.7134H14.7142H14.715H14.7159H14.7167H14.7175H14.7183H14.7192H14.72H14.7208H14.7216H14.7225H14.7233H14.7241H14.7249H14.7258H14.7266H14.7274H14.7282H14.7291H14.7299H14.7307H14.7315H14.7324H14.7332H14.734H14.7348H14.7357H14.7365H14.7373H14.7381H14.739H14.7398H14.7406H14.7414H14.7422H14.7431H14.7439H14.7447H14.7455H14.7464H14.7472H14.748H14.7488H14.7497H14.7505H14.7513H14.7521H14.7529H14.7538H14.7546H14.7554H14.7562H14.7571H14.7579H14.7587H14.7595H14.7603H14.7612H14.762H14.7628H14.7636H14.7645H14.7653H14.7661H14.7669H14.7678H14.7686H14.7694H14.7702H14.771H14.7719H14.7727H14.7735H14.7743H14.7751H14.776H14.7768H14.7776H14.7784H14.7793H14.7801H14.7809H14.7817H14.7825H14.7834H14.7842H14.785H14.7858H14.7866H14.7875H14.7883H14.7891H14.7899H14.7908H14.7916H14.7924H14.7932H14.794H14.7949H14.7957H14.7965H14.7973H14.7981H14.799H14.7998H14.8006H14.8014H14.8022H14.8031H14.8039H14.8047H14.8055H14.8064H14.8072H14.808H14.8088H14.8096H14.8105H14.8113H14.8121H14.8129H14.8137H14.8146H14.8154H14.8162H14.817H14.8178H14.8187H14.8195H14.8203H14.8211H14.8219H14.8228H14.8236H14.8244H14.8252H14.826H14.8269H14.8277H14.8285H14.8293H14.8301H14.831H14.8318H14.8326H14.8334H14.8342H14.8351H14.8359H14.8367H14.8375H14.8383H14.8392H14.84H14.8518L14.8518 1.57015C17.0238 1.62162 18.9251 2.07527 20.5186 2.94062L20.5187 2.94065C22.2236 3.86678 23.5152 5.16762 24.4021 6.84645L24.4026 6.84748C25.2774 8.5127 25.7 10.4558 25.7 12.65C25.7 14.8438 25.2776 16.797 24.4026 18.4625L24.4015 18.4646C23.6852 19.813 22.702 20.9346 21.4437 21.8017L21.3156 21.89H21.3058C21.0584 22.0575 20.7969 22.2167 20.5216 22.3678C20.2349 22.527 19.9262 22.676 19.6057 22.8042L19.604 22.8049L19.5744 22.8246L19.5266 22.8439C18.6159 23.2103 17.6256 23.4703 16.5573 23.6155L16.5238 23.62H16.4971L16.4908 23.6263L16.3184 23.6466C15.7941 23.7083 15.2475 23.7496 14.6791 23.7599L14.67 23.7601V23.76H3.98999C2.64048 23.76 1.55999 22.6628 1.55999 21.32V19.85C1.55999 18.5072 2.64048 17.41 3.98999 17.41H5.43999C6.22217 17.41 6.86999 16.7655 6.86999 15.97V9.29001C6.86999 8.49447 6.22217 7.85001 5.43999 7.85001H3.98999C2.64048 7.85001 1.55999 6.75278 1.55999 5.41001V4.01001ZM20.5216 22.3678C20.5212 22.368 20.5208 22.3682 20.5204 22.3684L20.28 21.93L20.5228 22.3671C20.5224 22.3673 20.522 22.3675 20.5216 22.3678ZM13.55 7.84001C12.7595 7.84001 12.12 8.48278 12.12 9.28001V15.96C12.12 16.7572 12.7595 17.4 13.55 17.4H14.9C16.7238 17.4 18.0051 16.9491 18.8383 16.1246L18.8456 16.1173L18.8457 16.1174C19.7161 15.291 20.17 14.1435 20.17 12.62C20.17 11.0745 19.7149 9.91785 18.8457 9.0926L18.8421 9.08915L18.8421 9.08913C18.0092 8.28226 16.7264 7.84001 14.9 7.84001H13.55ZM11.12 9.28001C11.12 7.93724 12.2005 6.84001 13.55 6.84001H14.9C16.8725 6.84001 18.449 7.31722 19.5361 8.36914C20.6457 9.42373 21.17 10.8665 21.17 12.62C21.17 14.3546 20.6451 15.7858 19.538 16.8391C18.4513 17.912 16.8739 18.4 14.9 18.4H13.55C12.2005 18.4 11.12 17.3028 11.12 15.96V9.28001Z"
        fill="#131625" />
</svg>