<svg width="27" height="33" viewBox="0 0 27 33" fill="none" xmlns="http://www.w3.org/2000/svg">
    <path fill-rule="evenodd" clip-rule="evenodd"
        d="M25.53 19.0101C24.71 20.5901 23.56 21.8801 22.12 22.8701L22.1 22.8801C21.93 23.0001 21.86 23.2201 21.94 23.4201L24.9 30.2901C25.45 31.5701 24.52 33.0001 23.13 33.0001H17.43C16.64 33.0001 15.93 32.5101 15.64 31.7701L13.38 25.9801C13.16 25.4301 12.64 25.0701 12.05 25.0701C11.26 25.0701 10.62 25.7201 10.62 26.5101V32.0301C10.62 32.5701 10.19 33.0001 9.66 33.0001H5.31C2.38 33.0001 0 30.6201 0 27.6901V17.7801C0 16.7101 0.86 15.8401 1.93 15.8401H1.99C3.82 15.8401 5.31 14.3501 5.31 12.5001C5.31 10.6501 3.82 9.16009 1.99 9.16009H1.93C0.86 9.16009 0 8.29008 0 7.22009V1.94009C0 0.860085 0.87 -0.00991465 1.93 8.53506e-05H14.28C16.82 8.53506e-05 19.11 0.480085 21.07 1.55009C23.01 2.61009 24.51 4.11009 25.53 6.05009C26.53 7.96008 27 10.1401 27 12.5301C27 14.9201 26.53 17.1001 25.53 19.0101ZM17.72 14.9801L17.74 14.9601C18.27 14.4501 18.62 13.7401 18.62 12.5001C18.62 11.2601 18.27 10.5201 17.74 10.0101C17.27 9.55009 16.4 9.16009 14.78 9.16009C14.03 9.16009 13.43 9.77009 13.43 10.5201V14.4801C13.43 15.2301 14.03 15.8401 14.78 15.8401C15.98 15.8401 16.77 15.6201 17.29 15.3101C17.46 15.2101 17.6 15.1001 17.72 14.9801ZM25.07 12.5301C25.07 10.4001 24.66 8.54006 23.83 6.96006L23.84 6.95006C23 5.36006 21.78 4.13006 20.16 3.25006C18.65 2.43006 16.83 1.99006 14.72 1.94006H14.29H3.86999C2.79999 1.94006 1.93999 2.81006 1.93999 3.88006V5.28006C1.93999 6.35006 2.79999 7.22006 3.86999 7.22006H5.31999C6.37999 7.22006 7.24999 8.09006 7.24999 9.16006V15.8401C7.24999 16.9101 6.37999 17.7801 5.31999 17.7801H3.86999C2.79999 17.7801 1.93999 18.6501 1.93999 19.7201V21.1901C1.93999 22.2601 2.79999 23.1301 3.86999 23.1301H14.55C15.1 23.1201 15.63 23.0801 16.14 23.0201C16.16 23.0201 16.18 23.0176 16.2 23.0151C16.22 23.0126 16.24 23.0101 16.26 23.0101C16.3 23.0001 16.33 23.0001 16.36 23.0001C17.39 22.8601 18.34 22.6101 19.21 22.2601C19.24 22.2401 19.26 22.2301 19.29 22.2201C19.59 22.1001 19.88 21.9601 20.15 21.8101C20.46 21.6401 20.75 21.4601 21.02 21.2701H21.03C22.22 20.4501 23.15 19.3901 23.83 18.1101C24.66 16.5301 25.07 14.6601 25.07 12.5301ZM19.07 8.61006C20.06 9.55006 20.55 10.8501 20.55 12.5001C20.55 14.1301 20.06 15.4201 19.07 16.3601C18.11 17.3101 16.68 17.7801 14.78 17.7801H13.43C12.36 17.7801 11.5 16.9101 11.5 15.8401V9.16006C11.5 8.09006 12.36 7.22006 13.43 7.22006H14.78C16.68 7.22006 18.11 7.68006 19.07 8.61006ZM22.31 29.1201C22.7 30.0301 22.03 31.0601 21.04 31.0601C18.87 31.0601 16.92 29.7201 16.12 27.6801L15.3 25.5801C15.2 25.3201 15.38 25.0401 15.66 25.0201C17.08 24.9101 18.41 24.6401 19.63 24.1701C19.89 24.0701 20.19 24.1901 20.3 24.4501L22.31 29.1201ZM8.70999 28.0501C8.70999 26.4001 7.37999 25.0601 5.72999 25.0601H4.90999C3.26999 25.0601 1.93999 26.3901 1.93999 28.0501C1.93999 29.7101 3.26999 31.0501 4.90999 31.0501H5.72999C7.37999 31.0501 8.70999 29.7001 8.70999 28.0501ZM20.5299 24.3519L20.5302 24.3527L22.5396 29.0212L22.5398 29.0216C22.9994 30.0941 22.2121 31.3101 21.04 31.3101C18.7658 31.3101 16.7243 29.9058 15.8872 27.7713L15.8871 27.771L15.0671 25.671L15.0667 25.6698C14.9054 25.2506 15.1972 24.803 15.6413 24.7708C17.0419 24.6622 18.3472 24.3963 19.5401 23.9368L19.5402 23.9367C19.9213 23.7902 20.3652 23.9637 20.5299 24.3519ZM19.7199 24.4034C18.473 24.8837 17.1185 25.1578 15.6793 25.2693L15.6778 25.2694C15.5626 25.2777 15.4949 25.3894 15.5332 25.4899L15.5333 25.4903L16.3527 27.5888L16.3528 27.589C17.1158 29.5344 18.9743 30.8101 21.04 30.8101C21.8478 30.8101 22.4005 29.9661 22.0803 29.2187L22.0802 29.2185L20.0704 24.5489L20.0697 24.5475C20.0142 24.4162 19.8586 24.3501 19.7199 24.4034ZM4.89999 24.8101C3.12029 24.8101 1.67999 26.2636 1.67999 28.0501C1.67999 29.8354 3.1192 31.3001 4.89999 31.3001H5.71999C7.5097 31.3001 8.94999 29.8465 8.94999 28.0501C8.94999 26.2631 7.50915 24.8101 5.71999 24.8101H4.89999ZM2.17999 28.0501C2.17999 26.5365 3.3997 25.3101 4.89999 25.3101H5.71999C7.23083 25.3101 8.44999 26.537 8.44999 28.0501C8.44999 29.5736 7.23029 30.8001 5.71999 30.8001H4.89999C3.40078 30.8001 2.17999 29.5647 2.17999 28.0501ZM3.86999 2.19006C2.93974 2.19006 2.18999 2.94645 2.18999 3.88006V5.28006C2.18999 6.21368 2.93974 6.97006 3.86999 6.97006H5.31999C6.5189 6.97006 7.49999 7.95283 7.49999 9.16006V15.8401C7.49999 17.0473 6.5189 18.0301 5.31999 18.0301H3.86999C2.93974 18.0301 2.18999 18.7864 2.18999 19.7201V21.1901C2.18999 22.1237 2.93974 22.8801 3.86999 22.8801H14.5477C15.057 22.8707 15.5493 22.8352 16.0248 22.7817L16.0464 22.7601H16.15C16.1499 22.7601 16.1518 22.7601 16.1567 22.7596C16.1622 22.7591 16.1683 22.7583 16.179 22.757L16.1821 22.7566C16.1948 22.755 16.2151 22.7524 16.2384 22.751C16.2858 22.7418 16.3249 22.7403 16.3527 22.7401C17.3487 22.6035 18.2659 22.3622 19.1051 22.0268C19.1396 22.0056 19.1725 21.9897 19.2131 21.9755C19.5005 21.8603 19.7789 21.7258 20.0386 21.5815L20.0398 21.5809C20.3422 21.415 20.6242 21.2399 20.8861 21.0556L20.9508 21.0101H20.9616C22.087 20.2199 22.9693 19.2059 23.619 17.9832C24.4263 16.4461 24.83 14.6179 24.83 12.5201C24.83 10.4222 24.4263 8.6038 23.6187 7.06644C22.8022 5.52105 21.6181 4.3266 20.0407 3.46974C18.5731 2.6728 16.7947 2.23967 14.717 2.19006H14.7167H14.7159H14.7151H14.7143H14.7134H14.7126H14.7118H14.711H14.7101H14.7093H14.7085H14.7077H14.7069H14.706H14.7052H14.7044H14.7036H14.7028H14.7019H14.7011H14.7003H14.6995H14.6987H14.6978H14.697H14.6962H14.6954H14.6946H14.6937H14.6929H14.6921H14.6913H14.6905H14.6896H14.6888H14.688H14.6872H14.6864H14.6855H14.6847H14.6839H14.6831H14.6823H14.6814H14.6806H14.6798H14.679H14.6781H14.6773H14.6765H14.6757H14.6749H14.674H14.6732H14.6724H14.6716H14.6708H14.6699H14.6691H14.6683H14.6675H14.6667H14.6658H14.665H14.6642H14.6634H14.6625H14.6617H14.6609H14.6601H14.6593H14.6584H14.6576H14.6568H14.656H14.6552H14.6543H14.6535H14.6527H14.6519H14.651H14.6502H14.6494H14.6486H14.6478H14.6469H14.6461H14.6453H14.6445H14.6436H14.6428H14.642H14.6412H14.6404H14.6395H14.6387H14.6379H14.6371H14.6362H14.6354H14.6346H14.6338H14.633H14.6321H14.6313H14.6305H14.6297H14.6288H14.628H14.6272H14.6264H14.6255H14.6247H14.6239H14.6231H14.6223H14.6214H14.6206H14.6198H14.619H14.6181H14.6173H14.6165H14.6157H14.6148H14.614H14.6132H14.6124H14.6115H14.6107H14.6099H14.6091H14.6082H14.6074H14.6066H14.6058H14.6049H14.6041H14.6033H14.6025H14.6016H14.6008H14.6H14.5992H14.5983H14.5975H14.5967H14.5959H14.595H14.5942H14.5934H14.5926H14.5917H14.5909H14.5901H14.5893H14.5884H14.5876H14.5868H14.586H14.5851H14.5843H14.5835H14.5827H14.5818H14.581H14.5802H14.5793H14.5785H14.5777H14.5769H14.576H14.5752H14.5744H14.5736H14.5727H14.5719H14.5711H14.5702H14.5694H14.5686H14.5678H14.5669H14.5661H14.5653H14.5645H14.5636H14.5628H14.562H14.5611H14.5603H14.5595H14.5587H14.5578H14.557H14.5562H14.5553H14.5545H14.5537H14.5528H14.552H14.5512H14.5504H14.5495H14.5487H14.5479H14.547H14.5462H14.5454H14.5445H14.5437H14.5429H14.5421H14.5412H14.5404H14.5396H14.5387H14.5379H14.5371H14.5362H14.5354H14.5346H14.5337H14.5329H14.5321H14.5312H14.5304H14.5296H14.5288H14.5279H14.5271H14.5263H14.5254H14.5246H14.5238H14.5229H14.5221H14.5213H14.5204H14.5196H14.5188H14.5179H14.5171H14.5163H14.5154H14.5146H14.5138H14.5129H14.5121H14.5112H14.5104H14.5096H14.5087H14.5079H14.5071H14.5062H14.5054H14.5046H14.5037H14.5029H14.5021H14.5012H14.5004H14.4996H14.4987H14.4979H14.497H14.4962H14.4954H14.4945H14.4937H14.4929H14.492H14.4912H14.4903H14.4895H14.4887H14.4878H14.487H14.4862H14.4853H14.4845H14.4836H14.4828H14.482H14.4811H14.4803H14.4794H14.4786H14.4778H14.4769H14.4761H14.4752H14.4744H14.4736H14.4727H14.4719H14.471H14.4702H14.4694H14.4685H14.4677H14.4668H14.466H14.4652H14.4643H14.4635H14.4626H14.4618H14.461H14.4601H14.4593H14.4584H14.4576H14.4567H14.4559H14.4551H14.4542H14.4534H14.4525H14.4517H14.4508H14.45H14.4491H14.4483H14.4475H14.4466H14.4458H14.4449H14.4441H14.4432H14.4424H14.4415H14.4407H14.4399H14.439H14.4382H14.4373H14.4365H14.4356H14.4348H14.4339H14.4331H14.4322H14.4314H14.4305H14.4297H14.4288H14.428H14.4271H14.4263H14.4254H14.4246H14.4238H14.4229H14.4221H14.4212H14.4204H14.4195H14.4187H14.4178H14.417H14.4161H14.4153H14.4144H14.4136H14.4127H14.4119H14.411H14.4102H14.4093H14.4084H14.4076H14.4067H14.4059H14.405H14.4042H14.4033H14.4025H14.4016H14.4008H14.3999H14.3991H14.3982H14.3974H14.3965H14.3957H14.3948H14.3939H14.3931H14.3922H14.3914H14.3905H14.3897H14.3888H14.388H14.3871H14.3862H14.3854H14.3845H14.3837H14.3828H14.382H14.3811H14.3802H14.3794H14.3785H14.3777H14.3768H14.376H14.3751H14.3742H14.3734H14.3725H14.3717H14.3708H14.3699H14.3691H14.3682H14.3674H14.3665H14.3656H14.3648H14.3639H14.3631H14.3622H14.3613H14.3605H14.3596H14.3587H14.3579H14.357H14.3562H14.3553H14.3544H14.3536H14.3527H14.3518H14.351H14.3501H14.3493H14.3484H14.3475H14.3467H14.3458H14.3449H14.3441H14.3432H14.3423H14.3415H14.3406H14.3397H14.3389H14.338H14.3371H14.3363H14.3354H14.3345H14.3337H14.3328H14.3319H14.3311H14.3302H14.3293H14.3285H14.3276H14.3267H14.3258H14.325H14.3241H14.3232H14.3224H14.3215H14.3206H14.3197H14.3189H14.318H14.3171H14.3163H14.3154H14.3145H14.3136H14.3128H14.3119H14.311H14.3101H14.3093H14.3084H14.3075H14.3067H14.3058H14.3049H14.304H14.3032H14.3023H14.3014H14.3005H14.2996H14.2988H14.2979H14.297H14.2961H14.2953H14.2944H14.2935H14.2926H14.2918H14.2909H14.29H3.86999ZM1.68999 3.88006C1.68999 2.67368 2.66024 1.69006 3.86999 1.69006H14.29H14.2909H14.2918H14.2926H14.2935H14.2944H14.2953H14.2961H14.297H14.2979H14.2988H14.2996H14.3005H14.3014H14.3023H14.3032H14.304H14.3049H14.3058H14.3067H14.3075H14.3084H14.3093H14.3101H14.311H14.3119H14.3128H14.3136H14.3145H14.3154H14.3163H14.3171H14.318H14.3189H14.3197H14.3206H14.3215H14.3224H14.3232H14.3241H14.325H14.3258H14.3267H14.3276H14.3285H14.3293H14.3302H14.3311H14.3319H14.3328H14.3337H14.3345H14.3354H14.3363H14.3371H14.338H14.3389H14.3397H14.3406H14.3415H14.3423H14.3432H14.3441H14.3449H14.3458H14.3467H14.3475H14.3484H14.3493H14.3501H14.351H14.3518H14.3527H14.3536H14.3544H14.3553H14.3562H14.357H14.3579H14.3587H14.3596H14.3605H14.3613H14.3622H14.3631H14.3639H14.3648H14.3656H14.3665H14.3674H14.3682H14.3691H14.3699H14.3708H14.3717H14.3725H14.3734H14.3742H14.3751H14.376H14.3768H14.3777H14.3785H14.3794H14.3802H14.3811H14.382H14.3828H14.3837H14.3845H14.3854H14.3862H14.3871H14.388H14.3888H14.3897H14.3905H14.3914H14.3922H14.3931H14.3939H14.3948H14.3957H14.3965H14.3974H14.3982H14.3991H14.3999H14.4008H14.4016H14.4025H14.4033H14.4042H14.405H14.4059H14.4067H14.4076H14.4084H14.4093H14.4102H14.411H14.4119H14.4127H14.4136H14.4144H14.4153H14.4161H14.417H14.4178H14.4187H14.4195H14.4204H14.4212H14.4221H14.4229H14.4238H14.4246H14.4254H14.4263H14.4271H14.428H14.4288H14.4297H14.4305H14.4314H14.4322H14.4331H14.4339H14.4348H14.4356H14.4365H14.4373H14.4382H14.439H14.4399H14.4407H14.4415H14.4424H14.4432H14.4441H14.4449H14.4458H14.4466H14.4475H14.4483H14.4491H14.45H14.4508H14.4517H14.4525H14.4534H14.4542H14.4551H14.4559H14.4567H14.4576H14.4584H14.4593H14.4601H14.461H14.4618H14.4626H14.4635H14.4643H14.4652H14.466H14.4668H14.4677H14.4685H14.4694H14.4702H14.471H14.4719H14.4727H14.4736H14.4744H14.4752H14.4761H14.4769H14.4778H14.4786H14.4794H14.4803H14.4811H14.482H14.4828H14.4836H14.4845H14.4853H14.4862H14.487H14.4878H14.4887H14.4895H14.4903H14.4912H14.492H14.4929H14.4937H14.4945H14.4954H14.4962H14.497H14.4979H14.4987H14.4996H14.5004H14.5012H14.5021H14.5029H14.5037H14.5046H14.5054H14.5062H14.5071H14.5079H14.5087H14.5096H14.5104H14.5112H14.5121H14.5129H14.5138H14.5146H14.5154H14.5163H14.5171H14.5179H14.5188H14.5196H14.5204H14.5213H14.5221H14.5229H14.5238H14.5246H14.5254H14.5263H14.5271H14.5279H14.5288H14.5296H14.5304H14.5312H14.5321H14.5329H14.5337H14.5346H14.5354H14.5362H14.5371H14.5379H14.5387H14.5396H14.5404H14.5412H14.5421H14.5429H14.5437H14.5445H14.5454H14.5462H14.547H14.5479H14.5487H14.5495H14.5504H14.5512H14.552H14.5528H14.5537H14.5545H14.5553H14.5562H14.557H14.5578H14.5587H14.5595H14.5603H14.5611H14.562H14.5628H14.5636H14.5645H14.5653H14.5661H14.5669H14.5678H14.5686H14.5694H14.5702H14.5711H14.5719H14.5727H14.5736H14.5744H14.5752H14.576H14.5769H14.5777H14.5785H14.5793H14.5802H14.581H14.5818H14.5827H14.5835H14.5843H14.5851H14.586H14.5868H14.5876H14.5884H14.5893H14.5901H14.5909H14.5917H14.5926H14.5934H14.5942H14.595H14.5959H14.5967H14.5975H14.5983H14.5992H14.6H14.6008H14.6016H14.6025H14.6033H14.6041H14.6049H14.6058H14.6066H14.6074H14.6082H14.6091H14.6099H14.6107H14.6115H14.6124H14.6132H14.614H14.6148H14.6157H14.6165H14.6173H14.6181H14.619H14.6198H14.6206H14.6214H14.6223H14.6231H14.6239H14.6247H14.6255H14.6264H14.6272H14.628H14.6288H14.6297H14.6305H14.6313H14.6321H14.633H14.6338H14.6346H14.6354H14.6362H14.6371H14.6379H14.6387H14.6395H14.6404H14.6412H14.642H14.6428H14.6436H14.6445H14.6453H14.6461H14.6469H14.6478H14.6486H14.6494H14.6502H14.651H14.6519H14.6527H14.6535H14.6543H14.6552H14.656H14.6568H14.6576H14.6584H14.6593H14.6601H14.6609H14.6617H14.6625H14.6634H14.6642H14.665H14.6658H14.6667H14.6675H14.6683H14.6691H14.6699H14.6708H14.6716H14.6724H14.6732H14.674H14.6749H14.6757H14.6765H14.6773H14.6781H14.679H14.6798H14.6806H14.6814H14.6823H14.6831H14.6839H14.6847H14.6855H14.6864H14.6872H14.688H14.6888H14.6896H14.6905H14.6913H14.6921H14.6929H14.6937H14.6946H14.6954H14.6962H14.697H14.6978H14.6987H14.6995H14.7003H14.7011H14.7019H14.7028H14.7036H14.7044H14.7052H14.706H14.7069H14.7077H14.7085H14.7093H14.7101H14.711H14.7118H14.7126H14.7134H14.7143H14.7151H14.7159H14.7167H14.7175H14.7184H14.7192H14.72H14.7259L14.7259 1.69013C16.8669 1.74087 18.7276 2.1877 20.2793 3.03037L20.2793 3.03038C21.9418 3.93345 23.1976 5.19887 24.061 6.83328L24.0613 6.8338C24.9137 8.45641 25.33 10.3579 25.33 12.5201C25.33 14.682 24.9138 16.5936 24.0613 18.2163L24.0608 18.2174C23.3626 19.5315 22.406 20.6224 21.1818 21.4659L21.1178 21.5101H21.1085C20.8494 21.6889 20.5734 21.8585 20.2807 22.019C20.0024 22.1736 19.7031 22.3181 19.3928 22.4422L19.386 22.4449L19.3791 22.4472L19.3729 22.4495L19.3718 22.4499L19.3689 22.4515C19.3669 22.4527 19.3636 22.4548 19.3587 22.4581L19.3372 22.4724L19.3133 22.482C18.4229 22.8402 17.4528 23.0952 16.4037 23.2378L16.3869 23.2401H16.37C16.354 23.2401 16.3482 23.2402 16.3429 23.2406C16.3392 23.2409 16.3357 23.2413 16.3306 23.2426L16.3008 23.2501H16.27C16.27 23.2501 16.2682 23.2501 16.2633 23.2505L16.2631 23.2506L16.2554 23.2582L16.1692 23.2684C15.652 23.3292 15.1138 23.3699 14.5545 23.38L14.55 23.3801V23.3801H3.86999C2.66024 23.3801 1.68999 22.3964 1.68999 21.1901V19.7201C1.68999 18.5137 2.66024 17.5301 3.86999 17.5301H5.31999C6.24108 17.5301 6.99999 16.7728 6.99999 15.8401V9.16006C6.99999 8.22729 6.24108 7.47006 5.31999 7.47006H3.86999C2.66024 7.47006 1.68999 6.48645 1.68999 5.28006V3.88006ZM11.75 9.15006C11.75 8.21645 12.4997 7.46006 13.43 7.46006H14.78C16.6432 7.46006 17.9996 7.91119 18.896 8.77963L18.8979 8.78136C19.8274 9.66399 20.3 10.8923 20.3 12.4901C20.3 14.0668 19.828 15.2856 18.8979 16.1688L18.8978 16.1687L18.8941 16.1724C17.9975 17.0596 16.6419 17.5201 14.78 17.5201H13.43C12.4997 17.5201 11.75 16.7637 11.75 15.8301V9.15006ZM13.43 6.96006C12.2202 6.96006 11.25 7.94368 11.25 9.15006V15.8301C11.25 17.0364 12.2202 18.0201 13.43 18.0201H14.78C16.7169 18.0201 18.2207 17.5411 19.244 16.5296C20.2926 15.5329 20.8 14.1723 20.8 12.4901C20.8 10.7883 20.2929 9.41693 19.243 8.41963C18.2195 7.42866 16.7162 6.96006 14.78 6.96006H13.43Z"
        fill="#181B2E" />
</svg>