<svg width="28" height="34" viewBox="0 0 28 34" fill="none" xmlns="http://www.w3.org/2000/svg">
    <g clip-path="url(#clip0_57_189)">
        <path fill-rule="evenodd" clip-rule="evenodd"
            d="M22.24 23C23.68 22.01 24.83 20.72 25.65 19.14C26.65 17.23 27.12 15.05 27.12 12.66C27.12 10.27 26.65 8.09003 25.65 6.18003C24.63 4.24003 23.13 2.74003 21.19 1.68003C19.23 0.610029 16.94 0.130029 14.4 0.130029H2.05C0.989995 0.120029 0.119995 0.990029 0.119995 2.07003V7.35003C0.119995 8.42003 0.979995 9.29003 2.05 9.29003H2.11C3.94 9.29003 5.43 10.78 5.43 12.63C5.43 14.48 3.94 15.97 2.11 15.97H2.05C0.979995 15.97 0.119995 16.84 0.119995 17.91V27.82C0.119995 30.75 2.49999 33.13 5.43 33.13H9.77999C10.31 33.13 10.74 32.7 10.74 32.16V26.64C10.74 25.85 11.38 25.2 12.17 25.2C12.76 25.2 13.28 25.56 13.5 26.11L15.76 31.9C16.05 32.64 16.76 33.13 17.55 33.13H23.25C24.64 33.13 25.57 31.7 25.02 30.42L22.06 23.55C21.98 23.35 22.05 23.13 22.22 23.01L22.24 23ZM17.86 15.09L17.84 15.11C17.72 15.23 17.58 15.34 17.41 15.44C16.89 15.75 16.1 15.97 14.9 15.97C14.15 15.97 13.55 15.36 13.55 14.61V10.65C13.55 9.90003 14.15 9.29003 14.9 9.29003C16.52 9.29003 17.39 9.68003 17.86 10.14C18.39 10.65 18.74 11.39 18.74 12.63C18.74 13.87 18.39 14.58 17.86 15.09ZM20.6499 24.4818C20.65 24.4821 20.6501 24.4823 20.6502 24.4826L22.6596 29.1512L22.6598 29.1515C23.1194 30.2241 22.3321 31.44 21.16 31.44C18.8858 31.44 16.8443 30.0357 16.0072 27.9013L16.0071 27.9009L15.1871 25.8009L15.1866 25.7998L15.1867 25.7998C15.0254 25.3806 15.3172 24.933 15.7613 24.9007C17.1619 24.7922 18.4672 24.5263 19.6601 24.0667L19.6602 24.0667C20.0413 23.9201 20.4852 24.0937 20.6499 24.4818ZM19.8399 24.5333C18.593 25.0137 17.2384 25.2878 15.7993 25.3993L15.7978 25.3994L15.7978 25.3994C15.6826 25.4076 15.6149 25.5194 15.6531 25.6198C15.6532 25.62 15.6533 25.6201 15.6533 25.6203L16.4727 27.7187C16.4728 27.7188 16.4728 27.7189 16.4728 27.7189C17.2358 29.6644 19.0943 30.94 21.16 30.94C21.9678 30.94 22.5205 30.096 22.2003 29.3486C22.2002 29.3486 22.2002 29.3485 22.2002 29.3485L20.1904 24.6788L20.1897 24.6774L20.1897 24.6774C20.1342 24.5461 19.9786 24.48 19.8399 24.5333ZM1.79999 28.18C1.79999 26.3936 3.24028 24.94 5.01999 24.94H5.83999C7.62915 24.94 9.06999 26.393 9.06999 28.18C9.06999 29.9764 7.62969 31.43 5.83999 31.43H5.01999C3.2392 31.43 1.79999 29.9653 1.79999 28.18ZM5.01999 25.44C3.51969 25.44 2.29999 26.6664 2.29999 28.18C2.29999 29.6947 3.52078 30.93 5.01999 30.93H5.83999C7.35028 30.93 8.56999 29.7036 8.56999 28.18C8.56999 26.667 7.35083 25.44 5.83999 25.44H5.01999ZM3.98999 2.32001C3.05974 2.32001 2.30999 3.07639 2.30999 4.01001V5.41001C2.30999 6.34362 3.05974 7.10001 3.98999 7.10001H5.43999C6.6389 7.10001 7.61999 8.08278 7.61999 9.29001V15.97C7.61999 17.1772 6.6389 18.16 5.43999 18.16H3.98999C3.05974 18.16 2.30999 18.9164 2.30999 19.85V21.32C2.30999 22.2536 3.05974 23.01 3.98999 23.01H14.6677C15.177 23.0007 15.6693 22.9652 16.1448 22.9116L16.1664 22.89H16.27C16.2699 22.89 16.2717 22.89 16.2767 22.8895C16.2822 22.889 16.2883 22.8883 16.299 22.8869L16.3021 22.8865C16.3148 22.8849 16.3351 22.8824 16.3584 22.881C16.4057 22.8717 16.4448 22.8703 16.4727 22.87C17.4687 22.7334 18.3859 22.4922 19.2251 22.1567C19.2596 22.1355 19.2925 22.1196 19.3331 22.1055C19.6205 21.9902 19.8989 21.8557 20.1586 21.7115L20.1598 21.7108C20.4622 21.545 20.7442 21.3698 21.0061 21.1856L21.0708 21.14H21.0816C22.207 20.3499 23.0893 19.3359 23.739 18.1132C24.5463 16.5761 24.95 14.7478 24.95 12.65C24.95 10.5522 24.5463 8.73375 23.7387 7.19638C22.9222 5.651 21.7381 4.45655 20.1607 3.59969C18.6931 2.80275 16.9147 2.36961 14.837 2.32001H14.8367H14.8359H14.8351H14.8342H14.8334H14.8326H14.8318H14.831H14.8301H14.8293H14.8285H14.8277H14.8269H14.826H14.8252H14.8244H14.8236H14.8228H14.8219H14.8211H14.8203H14.8195H14.8187H14.8178H14.817H14.8162H14.8154H14.8146H14.8137H14.8129H14.8121H14.8113H14.8105H14.8096H14.8088H14.808H14.8072H14.8064H14.8055H14.8047H14.8039H14.8031H14.8022H14.8014H14.8006H14.7998H14.799H14.7981H14.7973H14.7965H14.7957H14.7949H14.794H14.7932H14.7924H14.7916H14.7908H14.7899H14.7891H14.7883H14.7875H14.7866H14.7858H14.785H14.7842H14.7834H14.7825H14.7817H14.7809H14.7801H14.7793H14.7784H14.7776H14.7768H14.776H14.7751H14.7743H14.7735H14.7727H14.7719H14.771H14.7702H14.7694H14.7686H14.7678H14.7669H14.7661H14.7653H14.7645H14.7636H14.7628H14.762H14.7612H14.7603H14.7595H14.7587H14.7579H14.7571H14.7562H14.7554H14.7546H14.7538H14.7529H14.7521H14.7513H14.7505H14.7497H14.7488H14.748H14.7472H14.7464H14.7455H14.7447H14.7439H14.7431H14.7422H14.7414H14.7406H14.7398H14.739H14.7381H14.7373H14.7365H14.7357H14.7348H14.734H14.7332H14.7324H14.7315H14.7307H14.7299H14.7291H14.7282H14.7274H14.7266H14.7258H14.7249H14.7241H14.7233H14.7225H14.7216H14.7208H14.72H14.7192H14.7183H14.7175H14.7167H14.7159H14.715H14.7142H14.7134H14.7126H14.7117H14.7109H14.7101H14.7093H14.7084H14.7076H14.7068H14.706H14.7051H14.7043H14.7035H14.7026H14.7018H14.701H14.7002H14.6993H14.6985H14.6977H14.6969H14.696H14.6952H14.6944H14.6936H14.6927H14.6919H14.6911H14.6902H14.6894H14.6886H14.6878H14.6869H14.6861H14.6853H14.6844H14.6836H14.6828H14.682H14.6811H14.6803H14.6795H14.6786H14.6778H14.677H14.6762H14.6753H14.6745H14.6737H14.6728H14.672H14.6712H14.6704H14.6695H14.6687H14.6679H14.667H14.6662H14.6654H14.6645H14.6637H14.6629H14.6621H14.6612H14.6604H14.6596H14.6587H14.6579H14.6571H14.6562H14.6554H14.6546H14.6537H14.6529H14.6521H14.6512H14.6504H14.6496H14.6487H14.6479H14.6471H14.6462H14.6454H14.6446H14.6437H14.6429H14.6421H14.6413H14.6404H14.6396H14.6387H14.6379H14.6371H14.6362H14.6354H14.6346H14.6337H14.6329H14.6321H14.6312H14.6304H14.6296H14.6287H14.6279H14.6271H14.6262H14.6254H14.6246H14.6237H14.6229H14.6221H14.6212H14.6204H14.6195H14.6187H14.6179H14.617H14.6162H14.6154H14.6145H14.6137H14.6129H14.612H14.6112H14.6103H14.6095H14.6087H14.6078H14.607H14.6062H14.6053H14.6045H14.6036H14.6028H14.602H14.6011H14.6003H14.5994H14.5986H14.5978H14.5969H14.5961H14.5952H14.5944H14.5936H14.5927H14.5919H14.591H14.5902H14.5894H14.5885H14.5877H14.5868H14.586H14.5852H14.5843H14.5835H14.5826H14.5818H14.5809H14.5801H14.5793H14.5784H14.5776H14.5767H14.5759H14.575H14.5742H14.5734H14.5725H14.5717H14.5708H14.57H14.5691H14.5683H14.5675H14.5666H14.5658H14.5649H14.5641H14.5632H14.5624H14.5615H14.5607H14.5598H14.559H14.5582H14.5573H14.5565H14.5556H14.5548H14.5539H14.5531H14.5522H14.5514H14.5505H14.5497H14.5488H14.548H14.5471H14.5463H14.5454H14.5446H14.5437H14.5429H14.542H14.5412H14.5404H14.5395H14.5387H14.5378H14.537H14.5361H14.5353H14.5344H14.5335H14.5327H14.5318H14.531H14.5301H14.5293H14.5284H14.5276H14.5267H14.5259H14.525H14.5242H14.5233H14.5225H14.5216H14.5208H14.5199H14.5191H14.5182H14.5174H14.5165H14.5156H14.5148H14.5139H14.5131H14.5122H14.5114H14.5105H14.5097H14.5088H14.508H14.5071H14.5062H14.5054H14.5045H14.5037H14.5028H14.502H14.5011H14.5002H14.4994H14.4985H14.4977H14.4968H14.496H14.4951H14.4942H14.4934H14.4925H14.4917H14.4908H14.4899H14.4891H14.4882H14.4874H14.4865H14.4856H14.4848H14.4839H14.4831H14.4822H14.4813H14.4805H14.4796H14.4787H14.4779H14.477H14.4762H14.4753H14.4744H14.4736H14.4727H14.4718H14.471H14.4701H14.4692H14.4684H14.4675H14.4667H14.4658H14.4649H14.4641H14.4632H14.4623H14.4615H14.4606H14.4597H14.4589H14.458H14.4571H14.4563H14.4554H14.4545H14.4537H14.4528H14.4519H14.4511H14.4502H14.4493H14.4484H14.4476H14.4467H14.4458H14.445H14.4441H14.4432H14.4424H14.4415H14.4406H14.4397H14.4389H14.438H14.4371H14.4363H14.4354H14.4345H14.4336H14.4328H14.4319H14.431H14.4301H14.4293H14.4284H14.4275H14.4266H14.4258H14.4249H14.424H14.4231H14.4223H14.4214H14.4205H14.4196H14.4188H14.4179H14.417H14.4161H14.4153H14.4144H14.4135H14.4126H14.4117H14.4109H14.41H3.98999ZM1.80999 4.01001C1.80999 2.80362 2.78024 1.82001 3.98999 1.82001H14.41H14.4109H14.4117H14.4126H14.4135H14.4144H14.4153H14.4161H14.417H14.4179H14.4188H14.4196H14.4205H14.4214H14.4223H14.4231H14.424H14.4249H14.4258H14.4266H14.4275H14.4284H14.4293H14.4301H14.431H14.4319H14.4328H14.4336H14.4345H14.4354H14.4363H14.4371H14.438H14.4389H14.4397H14.4406H14.4415H14.4424H14.4432H14.4441H14.445H14.4458H14.4467H14.4476H14.4484H14.4493H14.4502H14.4511H14.4519H14.4528H14.4537H14.4545H14.4554H14.4563H14.4571H14.458H14.4589H14.4597H14.4606H14.4615H14.4623H14.4632H14.4641H14.4649H14.4658H14.4667H14.4675H14.4684H14.4692H14.4701H14.471H14.4718H14.4727H14.4736H14.4744H14.4753H14.4762H14.477H14.4779H14.4787H14.4796H14.4805H14.4813H14.4822H14.4831H14.4839H14.4848H14.4856H14.4865H14.4874H14.4882H14.4891H14.4899H14.4908H14.4917H14.4925H14.4934H14.4942H14.4951H14.496H14.4968H14.4977H14.4985H14.4994H14.5002H14.5011H14.502H14.5028H14.5037H14.5045H14.5054H14.5062H14.5071H14.508H14.5088H14.5097H14.5105H14.5114H14.5122H14.5131H14.5139H14.5148H14.5156H14.5165H14.5174H14.5182H14.5191H14.5199H14.5208H14.5216H14.5225H14.5233H14.5242H14.525H14.5259H14.5267H14.5276H14.5284H14.5293H14.5301H14.531H14.5318H14.5327H14.5335H14.5344H14.5353H14.5361H14.537H14.5378H14.5387H14.5395H14.5404H14.5412H14.542H14.5429H14.5437H14.5446H14.5454H14.5463H14.5471H14.548H14.5488H14.5497H14.5505H14.5514H14.5522H14.5531H14.5539H14.5548H14.5556H14.5565H14.5573H14.5582H14.559H14.5598H14.5607H14.5615H14.5624H14.5632H14.5641H14.5649H14.5658H14.5666H14.5675H14.5683H14.5691H14.57H14.5708H14.5717H14.5725H14.5734H14.5742H14.575H14.5759H14.5767H14.5776H14.5784H14.5793H14.5801H14.5809H14.5818H14.5826H14.5835H14.5843H14.5852H14.586H14.5868H14.5877H14.5885H14.5894H14.5902H14.591H14.5919H14.5927H14.5936H14.5944H14.5952H14.5961H14.5969H14.5978H14.5986H14.5994H14.6003H14.6011H14.602H14.6028H14.6036H14.6045H14.6053H14.6062H14.607H14.6078H14.6087H14.6095H14.6103H14.6112H14.612H14.6129H14.6137H14.6145H14.6154H14.6162H14.617H14.6179H14.6187H14.6195H14.6204H14.6212H14.6221H14.6229H14.6237H14.6246H14.6254H14.6262H14.6271H14.6279H14.6287H14.6296H14.6304H14.6312H14.6321H14.6329H14.6337H14.6346H14.6354H14.6362H14.6371H14.6379H14.6387H14.6396H14.6404H14.6413H14.6421H14.6429H14.6437H14.6446H14.6454H14.6462H14.6471H14.6479H14.6487H14.6496H14.6504H14.6512H14.6521H14.6529H14.6537H14.6546H14.6554H14.6562H14.6571H14.6579H14.6587H14.6596H14.6604H14.6612H14.6621H14.6629H14.6637H14.6645H14.6654H14.6662H14.667H14.6679H14.6687H14.6695H14.6704H14.6712H14.672H14.6728H14.6737H14.6745H14.6753H14.6762H14.677H14.6778H14.6786H14.6795H14.6803H14.6811H14.682H14.6828H14.6836H14.6844H14.6853H14.6861H14.6869H14.6878H14.6886H14.6894H14.6902H14.6911H14.6919H14.6927H14.6936H14.6944H14.6952H14.696H14.6969H14.6977H14.6985H14.6993H14.7002H14.701H14.7018H14.7026H14.7035H14.7043H14.7051H14.706H14.7068H14.7076H14.7084H14.7093H14.7101H14.7109H14.7117H14.7126H14.7134H14.7142H14.715H14.7159H14.7167H14.7175H14.7183H14.7192H14.72H14.7208H14.7216H14.7225H14.7233H14.7241H14.7249H14.7258H14.7266H14.7274H14.7282H14.7291H14.7299H14.7307H14.7315H14.7324H14.7332H14.734H14.7348H14.7357H14.7365H14.7373H14.7381H14.739H14.7398H14.7406H14.7414H14.7422H14.7431H14.7439H14.7447H14.7455H14.7464H14.7472H14.748H14.7488H14.7497H14.7505H14.7513H14.7521H14.7529H14.7538H14.7546H14.7554H14.7562H14.7571H14.7579H14.7587H14.7595H14.7603H14.7612H14.762H14.7628H14.7636H14.7645H14.7653H14.7661H14.7669H14.7678H14.7686H14.7694H14.7702H14.771H14.7719H14.7727H14.7735H14.7743H14.7751H14.776H14.7768H14.7776H14.7784H14.7793H14.7801H14.7809H14.7817H14.7825H14.7834H14.7842H14.785H14.7858H14.7866H14.7875H14.7883H14.7891H14.7899H14.7908H14.7916H14.7924H14.7932H14.794H14.7949H14.7957H14.7965H14.7973H14.7981H14.799H14.7998H14.8006H14.8014H14.8022H14.8031H14.8039H14.8047H14.8055H14.8064H14.8072H14.808H14.8088H14.8096H14.8105H14.8113H14.8121H14.8129H14.8137H14.8146H14.8154H14.8162H14.817H14.8178H14.8187H14.8195H14.8203H14.8211H14.8219H14.8228H14.8236H14.8244H14.8252H14.826H14.8269H14.8277H14.8285H14.8293H14.8301H14.831H14.8318H14.8326H14.8334H14.8342H14.8351H14.8359H14.8367H14.8375H14.8383H14.8392H14.84H14.8459L14.8459 1.82008C16.9869 1.87081 18.8475 2.31764 20.3993 3.16031L20.3993 3.16033C22.0618 4.06339 23.3176 5.32881 24.181 6.96323L24.1813 6.96374C25.0337 8.58636 25.45 10.4879 25.45 12.65C25.45 14.8119 25.0338 16.7235 24.1813 18.3463L24.1808 18.3473C23.4826 19.6615 22.526 20.7523 21.3018 21.5959L21.2378 21.64H21.2285C20.9694 21.8188 20.6934 21.9884 20.4007 22.1489C20.1224 22.3035 19.8231 22.448 19.5128 22.5721L19.506 22.5749L19.499 22.5772L19.4928 22.5794L19.4918 22.5799C19.4917 22.5799 19.4909 22.5803 19.4889 22.5815C19.4869 22.5827 19.4836 22.5847 19.4787 22.588L19.4572 22.6023L19.4333 22.6119C18.5429 22.9701 17.5728 23.2251 16.5237 23.3677L16.5069 23.37H16.49C16.474 23.37 16.4682 23.3701 16.4629 23.3705C16.4592 23.3708 16.4557 23.3713 16.4506 23.3725L16.4208 23.38H16.39C16.39 23.38 16.3882 23.38 16.3833 23.3805C16.3832 23.3805 16.3831 23.3805 16.383 23.3805L16.3754 23.3882L16.2892 23.3983C15.772 23.4591 15.2337 23.4998 14.6745 23.51L14.67 23.51V23.51H3.98999C2.78024 23.51 1.80999 22.5264 1.80999 21.32V19.85C1.80999 18.6436 2.78024 17.66 3.98999 17.66H5.43999C6.36108 17.66 7.11999 16.9028 7.11999 15.97V9.29001C7.11999 8.35724 6.36108 7.60001 5.43999 7.60001H3.98999C2.78024 7.60001 1.80999 6.61639 1.80999 5.41001V4.01001ZM13.55 7.59001C12.6197 7.59001 11.87 8.34639 11.87 9.28001V15.96C11.87 16.8936 12.6197 17.65 13.55 17.65H14.9C16.7619 17.65 18.1175 17.1896 19.0141 16.3023L19.0178 16.2987L19.0178 16.2987C19.948 15.4155 20.42 14.1968 20.42 12.62C20.42 11.0222 19.9474 9.79393 19.0178 8.9113L19.016 8.90958L19.016 8.90957C18.1196 8.04114 16.7632 7.59001 14.9 7.59001H13.55ZM11.37 9.28001C11.37 8.07362 12.3402 7.09001 13.55 7.09001H14.9C16.8362 7.09001 18.3395 7.5586 19.363 8.54957C20.4128 9.54688 20.92 10.9183 20.92 12.62C20.92 14.3022 20.4125 15.6629 19.364 16.6595C18.3407 17.671 16.8369 18.15 14.9 18.15H13.55C12.3402 18.15 11.37 17.1664 11.37 15.96V9.28001Z"
            fill="#131625" />
    </g>
    <defs>
        <clipPath id="clip0_57_189">
            <rect width="27.25" height="33.25" fill="white" />
        </clipPath>
    </defs>
</svg>